<svg version="1.1" id="Layer_1" xmlns="http://www.w3.org/2000/svg" xmlns:xlink="http://www.w3.org/1999/xlink" x="0px" y="0px"
	 width="100%" viewBox="0 0 1024 1024" enable-background="new 0 0 1024 1024" xml:space="preserve">
<path fill="#000000" opacity="1.000000" stroke="none" 
	d="
M722.730835,229.599106 
	C731.321350,229.716187 739.489319,229.893600 747.648621,229.701965 
	C751.691406,229.607010 753.477356,230.948105 753.285889,235.142258 
	C753.065674,239.965088 753.387817,244.811874 753.193726,249.636978 
	C753.048096,253.258636 754.362122,254.799179 758.089600,254.686676 
	C763.916992,254.510803 769.757568,254.780457 775.585693,254.617020 
	C779.052429,254.519791 780.373108,255.887115 780.253906,259.319305 
	C780.086243,264.146301 780.410095,268.993256 780.168701,273.813934 
	C779.954956,278.081299 781.481689,279.894470 785.899963,279.720215 
	C792.056519,279.477509 798.234619,279.812103 804.394775,279.619812 
	C808.109436,279.503845 809.466614,280.996185 809.319824,284.613708 
	C809.144165,288.939240 809.292542,293.278046 809.305542,297.611084 
	C809.326721,304.684631 809.328430,304.685455 816.652222,304.685608 
	C821.318604,304.685699 825.985046,304.669464 830.651367,304.684631 
	C837.174133,304.705841 837.184082,304.715424 837.213013,311.464050 
	C837.233765,316.296906 837.332336,321.133118 837.189697,325.961700 
	C837.088928,329.373047 838.438782,330.782104 841.898804,330.683167 
	C847.393738,330.526123 852.913025,330.918396 858.391541,330.581635 
	C862.909363,330.303894 864.120117,332.115143 864.049927,336.363800 
	C863.837891,349.192566 863.941650,362.026764 863.950134,374.858856 
	C863.954651,381.731781 864.194946,381.961670 870.860535,381.995209 
	C875.526855,382.018646 880.207581,382.246735 884.855652,381.959412 
	C889.673889,381.661621 891.231812,383.606323 891.204956,388.339966 
	C891.054443,414.837128 891.140503,441.335602 891.145996,467.833649 
	C891.146851,471.833313 890.929749,475.848389 891.208740,479.828613 
	C891.523376,484.316681 889.594666,485.696594 885.338379,485.444031 
	C880.522034,485.158234 875.676147,485.351929 870.843201,485.367737 
	C864.091919,485.389862 863.680359,485.929657 863.761047,492.875000 
	C863.906189,505.371979 863.977356,517.870178 864.000793,530.367981 
	C864.013367,537.061829 863.873962,537.138367 857.365601,537.176697 
	C852.199463,537.207092 847.031433,537.300903 841.867737,537.195251 
	C838.434570,537.125122 837.081055,538.620361 837.176575,542.006165 
	C837.322266,547.168640 836.969482,552.355591 837.319397,557.498718 
	C837.643494,562.262573 835.632507,563.411316 831.205078,563.389526 
	C799.707703,563.234375 768.209290,563.291748 736.711243,563.272095 
	C729.283997,563.267456 729.281250,563.251099 729.254822,570.682800 
	C729.238831,575.182495 729.095398,579.687561 729.268372,584.180176 
	C729.394653,587.460815 728.071228,588.629822 724.863708,588.512573 
	C719.870972,588.330017 714.866394,588.339600 709.869812,588.431274 
	C703.611145,588.546143 702.942383,589.264771 702.921387,595.357666 
	C702.905823,599.856995 702.887390,604.358337 703.001953,608.855408 
	C703.088745,612.261047 701.633850,613.591370 698.195435,613.480225 
	C692.377075,613.292053 686.542053,613.592957 680.725403,613.378967 
	C676.172058,613.211426 674.380859,615.264832 674.400085,619.616394 
	C674.456665,632.448486 674.502930,645.281860 674.378845,658.112976 
	C674.334534,662.700378 676.372986,664.316284 680.782410,664.116211 
	C686.105347,663.874573 691.459595,664.243958 696.774292,663.921021 
	C701.642822,663.625305 703.071716,665.627930 703.050598,670.319824 
	C702.909546,701.649170 702.988220,732.979492 702.991455,764.309509 
	C702.992249,771.975342 702.885315,779.642700 703.009705,787.306396 
	C703.072021,791.145630 701.586792,792.660217 697.665222,792.468628 
	C692.345093,792.208557 687.001892,792.359375 681.669678,792.426392 
	C675.496033,792.503906 674.443237,793.665405 674.604370,799.889099 
	C674.712097,804.051819 674.632385,808.228638 674.957581,812.373962 
	C675.337708,817.220093 673.687439,819.462952 668.500122,819.096863 
	C663.525452,818.745850 658.501465,819.159912 653.508728,818.977722 
	C649.079468,818.816101 647.043091,820.517578 647.306213,825.118469 
	C647.543701,829.271301 647.361023,833.448425 647.351440,837.614868 
	C647.336487,844.108643 647.332153,844.124512 640.601624,844.154541 
	C635.768738,844.176086 630.927673,844.317688 626.105103,844.090759 
	C621.890869,843.892395 619.979614,845.295105 620.255981,849.797729 
	C620.561646,854.778015 620.199890,859.795654 620.338806,864.791199 
	C620.424927,867.890137 619.091797,868.926086 616.139282,868.767029 
	C601.667114,867.987122 587.177551,869.570435 572.704041,868.491821 
	C569.020264,868.217224 567.093628,869.594849 567.300232,873.650696 
	C567.528870,878.138672 567.086121,882.667053 567.420044,887.141785 
	C567.760742,891.707214 566.136169,893.233337 561.521545,893.186401 
	C542.192200,892.989563 522.859497,893.121277 503.528076,893.118347 
	C458.198822,893.111511 412.869568,893.093262 367.540314,893.087646 
	C359.232208,893.086609 359.265167,893.104065 359.283630,885.003662 
	C359.292358,881.176086 358.998322,877.343567 359.113068,873.521423 
	C359.231079,869.590881 357.520508,868.257324 353.679596,868.417603 
	C334.880859,869.201721 316.074097,868.820923 297.267303,868.692017 
	C293.631134,868.667114 292.599213,867.442505 292.722015,864.061768 
	C292.903381,859.068970 292.600800,854.057800 292.804840,849.066772 
	C292.955597,845.378479 291.519867,844.058044 287.857208,844.089661 
	C274.692749,844.203369 261.524353,843.964233 248.361969,844.161255 
	C244.044388,844.225891 242.313889,842.900513 242.604675,838.451294 
	C242.919159,833.639221 242.472855,828.780029 242.721481,823.960144 
	C242.916824,820.173645 241.267654,818.889832 237.747559,818.954895 
	C233.083572,819.041077 228.415329,818.879578 223.750427,818.940308 
	C220.334198,818.984863 219.084991,817.634766 219.357056,814.073364 
	C219.736511,809.106445 219.584671,804.093079 219.537109,799.100769 
	C219.480606,793.170715 218.718979,792.439087 212.957428,792.400635 
	C208.124557,792.368347 203.284073,792.211182 198.460739,792.423035 
	C194.702316,792.588135 193.457321,791.023682 193.606918,787.419128 
	C193.807144,782.594482 193.523209,777.750549 193.694321,772.923645 
	C193.815109,769.516052 192.468231,768.020508 189.053391,768.072815 
	C184.222427,768.146790 179.379028,767.843872 174.559128,768.077393 
	C170.147781,768.291016 168.729279,766.430664 168.786667,762.177856 
	C168.962067,749.181152 168.665802,736.176208 168.961273,723.183838 
	C169.072922,718.274780 167.296722,716.606384 162.613022,716.986938 
	C159.468918,717.242371 156.274597,716.836182 153.120712,717.025391 
	C149.045639,717.269897 147.538651,715.662781 147.596481,711.510071 
	C147.784439,698.013489 147.520981,684.510315 147.745407,671.014893 
	C147.817261,666.693298 146.530853,664.855652 142.073990,665.261108 
	C138.933823,665.546753 135.727203,665.089600 132.584167,665.359253 
	C128.151382,665.739502 126.893768,663.927002 126.912643,659.590271 
	C127.054771,626.926819 126.973351,594.262329 126.964615,561.598206 
	C126.958374,538.266663 126.948364,514.935181 126.957657,491.603668 
	C126.960403,484.712219 126.999092,484.699341 133.979813,484.677948 
	C136.812958,484.669281 139.655182,484.526062 142.477097,484.702637 
	C146.375427,484.946625 147.753311,483.299896 147.707443,479.417816 
	C147.549942,466.087097 147.637070,452.753448 147.649933,439.420898 
	C147.656387,432.727264 147.674927,432.723724 154.158905,432.695038 
	C170.710770,432.621857 168.699387,434.057129 168.787415,417.845825 
	C168.842606,407.680298 168.957794,397.511902 168.770111,387.349884 
	C168.696655,383.373505 170.330246,381.984680 174.067749,382.064575 
	C179.064606,382.171356 184.067688,381.982483 189.064743,382.084595 
	C192.467911,382.154144 193.806839,380.765778 193.710037,377.304932 
	C193.524323,370.665527 193.656006,364.017181 193.656006,356.380646 
	C199.270248,356.380646 204.514679,356.257477 209.751236,356.408264 
	C218.590393,356.662811 219.131790,356.195068 219.029510,347.390961 
	C218.988892,343.892029 219.249466,340.374573 218.974838,336.896973 
	C218.606918,332.238159 220.163559,330.119019 225.134430,330.575043 
	C229.100861,330.938965 233.141022,330.442566 237.123138,330.708069 
	C241.202484,330.980103 242.903000,329.540375 242.716644,325.326538 
	C242.473938,319.837921 242.757797,314.328033 242.639908,308.831085 
	C242.575699,305.837463 243.783447,304.604492 246.768021,304.682800 
	C251.097977,304.796448 255.433258,304.709656 259.766266,304.703522 
	C266.802948,304.693542 266.803650,304.691925 266.825897,297.881744 
	C266.840027,293.548706 266.977631,289.211304 266.826508,284.883972 
	C266.694794,281.112091 268.042603,279.416107 272.046997,279.613800 
	C277.200439,279.868164 282.379028,279.561981 287.542053,279.690033 
	C291.287018,279.782928 292.541260,277.952301 292.487701,274.473175 
	C292.411011,269.487091 292.839233,264.475922 292.481049,259.516724 
	C292.173065,255.252869 294.057922,254.480087 297.718079,254.590927 
	C304.211487,254.787598 310.717010,254.549332 317.214447,254.664398 
	C320.402344,254.720856 321.762177,253.479080 321.677490,250.246872 
	C321.546600,245.250702 321.859467,240.236908 321.587006,235.252304 
	C321.360443,231.107849 322.920654,229.719238 327.032776,229.754150 
	C345.196655,229.908386 363.362610,229.844131 381.527710,229.813248 
	C388.777924,229.800919 388.824158,229.713379 388.903961,222.622803 
	C388.943359,219.123459 389.117462,215.611526 388.893158,212.127014 
	C388.631866,208.067810 390.110779,206.489273 394.315826,206.608490 
	C403.141510,206.858704 411.981293,206.574188 420.810883,206.741241 
	C424.525299,206.811508 425.902252,205.378098 425.699554,201.725037 
	C425.487549,197.903763 425.894440,194.042267 425.590149,190.233566 
	C425.261780,186.123459 427.175354,184.995346 430.851959,185.054276 
	C438.016052,185.169144 445.183258,185.087540 452.349182,185.091675 
	C478.973328,185.106995 505.597626,185.075668 532.221558,185.154861 
	C556.192444,185.226151 580.167358,185.750290 604.131653,185.424026 
	C616.780945,185.251801 629.422424,185.307556 642.066345,185.349640 
	C649.202576,185.373398 649.202515,185.519623 649.220093,192.932770 
	C649.226440,195.599274 649.491821,198.296890 649.178711,200.925476 
	C648.608521,205.711884 650.758423,206.840714 655.188721,206.797546 
	C674.518921,206.609070 693.851990,206.703918 713.184021,206.711044 
	C720.312500,206.713684 720.316345,206.732697 720.339233,213.824966 
	C720.351013,217.491364 720.321289,221.158096 720.360168,224.824158 
	C720.379211,226.624039 720.099243,228.594955 722.730835,229.599106 
M292.206940,588.904480 
	C292.262787,595.233948 292.463043,601.566650 292.319611,607.891602 
	C292.235352,611.608887 293.772369,612.981689 297.358093,612.861267 
	C301.684723,612.715942 306.024078,612.725098 310.350677,612.875793 
	C313.604218,612.989014 314.817841,611.596741 314.734711,608.419434 
	C314.604004,603.425049 314.509003,598.413208 314.783234,593.429871 
	C315.008209,589.341736 313.201477,588.249084 309.455444,588.316284 
	C303.636658,588.420776 297.810852,588.131531 292.252899,587.227234 
	C293.068604,572.100647 292.426422,556.963806 292.571960,541.832458 
	C292.604248,538.474792 290.956451,537.102905 287.607147,537.191101 
	C281.953278,537.339966 276.291992,537.343750 270.636627,537.246399 
	C267.385590,537.190430 266.213318,538.643250 266.285248,541.784546 
	C266.410858,547.272705 266.187042,552.770081 266.360077,558.255615 
	C266.473053,561.836792 265.200439,563.470886 261.472656,563.300598 
	C257.487854,563.118652 253.466858,563.534119 249.499390,563.216980 
	C244.541702,562.820679 242.968170,564.979675 243.293594,569.646301 
	C243.570724,573.620422 243.633438,577.655212 243.275040,581.616394 
	C242.825317,586.586853 244.945816,587.832947 249.602707,587.782776 
	C263.738220,587.630249 277.878113,587.884033 292.206940,588.904480 
M292.110992,791.342957 
	C293.035400,785.042175 292.492432,778.704773 292.579407,772.383240 
	C292.618988,769.508667 291.198456,768.110718 288.296173,768.115601 
	C282.299072,768.125732 276.301605,768.104675 270.304840,768.043091 
	C267.293701,768.012207 266.222839,769.494568 266.296844,772.397949 
	C266.419983,777.227051 266.539734,782.074402 266.255524,786.890076 
	C266.015228,790.960876 267.755798,792.109741 271.532623,792.007446 
	C278.358948,791.822449 285.194244,791.968079 292.207520,792.902344 
	C292.264374,798.898193 292.351013,804.893860 292.370300,810.889832 
	C292.392761,817.865234 292.367157,817.871399 299.129120,817.878235 
	C318.956940,817.898132 338.785339,817.997253 358.612122,817.862915 
	C362.929352,817.833618 364.661530,819.297607 364.375397,823.673462 
	C364.093262,827.987488 364.573944,832.355591 364.226959,836.660217 
	C363.841705,841.440063 365.525024,842.984009 370.393341,842.932800 
	C391.384521,842.712036 412.379639,842.879211 433.373322,842.881226 
	C458.365753,842.883667 483.358215,842.870728 508.350647,842.844604 
	C515.682922,842.836914 515.682800,842.805969 515.684448,835.272339 
	C515.685242,831.440063 515.963684,827.582397 515.617249,823.781799 
	C515.178894,818.975037 517.369446,817.655212 521.734497,817.846497 
	C526.555786,818.057739 531.396301,817.788208 536.227112,817.841797 
	C539.376587,817.876709 540.758179,816.524963 540.677612,813.322632 
	C540.556152,808.493896 540.650085,803.659424 540.667664,798.827515 
	C540.692383,792.029602 540.698303,792.007751 547.715027,791.986511 
	C560.877869,791.946594 574.041443,791.857361 587.203369,791.957764 
	C591.235291,791.988586 593.053833,790.488403 592.773499,786.360840 
	C592.582031,783.542114 592.789795,780.698059 592.763367,777.865906 
	C592.659912,766.753357 593.738037,768.152100 582.721802,768.054443 
	C571.226257,767.952454 559.728821,768.061829 548.232239,768.066162 
	C540.679016,768.069092 540.676819,768.059143 540.666199,760.747314 
	C540.659485,756.081909 540.489746,751.408447 540.709717,746.753540 
	C540.897522,742.780029 539.078613,741.350037 535.370483,741.411377 
	C531.039856,741.483032 526.683777,741.674927 522.380615,741.315247 
	C517.337524,740.893555 516.173035,743.082764 516.349426,747.737610 
	C516.840576,760.697754 516.820312,773.668152 516.553467,786.645264 
	C516.455383,791.414185 514.768127,792.744934 510.393311,792.412598 
	C506.748627,792.135742 503.066254,792.340576 499.400665,792.356323 
	C493.372314,792.382202 493.007385,792.733826 492.984741,798.941772 
	C492.969543,803.106445 493.097870,807.271606 493.084473,811.436340 
	C493.061371,818.600281 492.727661,818.949219 485.377014,818.954590 
	C456.053070,818.975830 426.729126,818.974365 397.405182,818.957703 
	C390.274719,818.953674 390.008850,818.674805 390.008087,811.734070 
	C390.006744,799.404907 390.029480,787.075745 390.055420,774.746582 
	C390.068420,768.562561 389.688538,768.131958 383.721954,768.070312 
	C379.057251,768.022217 374.388397,768.124329 369.728180,767.963196 
	C365.789795,767.827026 363.942291,769.191956 364.229492,773.457153 
	C364.542145,778.100952 364.143646,782.788696 364.326508,787.446533 
	C364.468445,791.061890 363.149048,792.532410 359.421631,792.438904 
	C351.928497,792.250732 344.426239,792.466675 336.929321,792.379639 
	C321.942902,792.205688 306.949860,792.875732 292.110992,791.342957 
M606.500000,383.307037 
	C595.503967,383.291748 584.504089,383.102417 573.513550,383.340912 
	C568.654419,383.446411 566.905457,381.397552 567.017456,376.848053 
	C567.132263,372.184906 566.927124,367.513275 567.068665,362.851624 
	C567.185059,359.017975 565.465271,357.356628 561.710510,357.390900 
	C556.211914,357.441101 550.711060,357.305420 545.213440,357.391998 
	C542.181213,357.439789 540.560608,356.495056 540.642761,353.119324 
	C540.792786,346.957153 540.776611,340.786591 540.640747,334.623688 
	C540.571960,331.504608 542.003662,330.577087 544.875488,330.636597 
	C550.039124,330.743622 555.206970,330.668243 560.372864,330.638641 
	C566.302490,330.604645 566.912659,330.023010 566.936096,324.019379 
	C566.986328,311.187988 567.113098,298.354492 566.930969,285.525848 
	C566.866516,280.982635 568.428101,279.477966 573.029419,279.575836 
	C586.188660,279.855652 599.361450,279.498871 612.520630,279.779938 
	C617.414978,279.884491 619.141235,278.171539 618.705261,273.416351 
	C618.402222,270.111298 618.665283,266.755768 618.646667,263.422943 
	C618.611267,257.068054 617.930481,256.347717 611.376587,256.320312 
	C598.378357,256.265930 585.377808,256.152618 572.382690,256.355194 
	C568.149902,256.421143 566.700623,254.776581 566.906799,250.783600 
	C567.087036,247.293045 566.943237,243.786331 566.965027,240.286896 
	C567.019775,231.523132 566.579468,231.083054 557.583191,231.083878 
	C545.085144,231.085022 532.587158,231.083694 520.089111,231.097336 
	C499.092773,231.120224 478.096344,231.134903 457.100098,231.195160 
	C450.898773,231.212967 450.330170,231.858231 450.316376,238.167816 
	C450.307617,242.167313 450.052643,246.188919 450.384918,250.160706 
	C450.788422,254.984314 448.967590,256.477020 444.153442,256.398193 
	C428.326294,256.138977 412.491425,256.393799 396.661255,256.252991 
	C392.599976,256.216919 390.838531,257.675110 390.998322,261.771515 
	C391.167114,266.097809 391.093140,270.435608 391.049713,274.767639 
	C390.988220,280.900635 390.679108,281.138519 384.440735,281.129150 
	C371.442657,281.109619 358.442810,281.245056 345.447296,281.062286 
	C340.844818,280.997559 338.614777,282.422729 338.979370,287.344116 
	C339.274109,291.321838 339.229523,295.348297 339.003754,299.334351 
	C338.770691,303.449890 340.392090,304.848358 344.510284,304.783539 
	C357.505554,304.578979 370.505951,304.686157 383.504333,304.701355 
	C391.035248,304.710175 391.046814,304.734863 391.081635,312.042145 
	C391.100708,316.041290 391.063843,320.040649 391.068237,324.039917 
	C391.075195,330.336090 391.341278,330.618652 397.407318,330.647308 
	C401.740051,330.667816 406.088226,330.427368 410.401428,330.718903 
	C414.673920,331.007660 415.863739,329.153900 415.817963,325.169739 
	C415.670563,312.339905 415.758636,299.507050 415.793365,286.675507 
	C415.812195,279.708893 415.846436,279.682495 422.611603,279.676147 
	C438.443085,279.661285 454.274536,279.682526 470.106018,279.672150 
	C476.659821,279.667877 476.676270,279.648254 476.731689,272.924683 
	C476.771545,268.092316 476.781158,263.259399 476.762451,258.426910 
	C476.753204,256.034729 477.651154,254.677429 480.266449,254.681091 
	C499.263763,254.707657 518.261169,254.703491 537.258545,254.676865 
	C539.770264,254.673340 540.953003,255.885239 540.955383,258.308289 
	C540.969604,272.805817 540.963135,287.303314 540.969604,301.800842 
	C540.971069,304.958893 539.406372,306.227478 536.272766,306.119934 
	C532.111572,305.977112 527.941833,306.069061 523.775818,306.084839 
	C517.100464,306.110077 516.436096,306.797241 516.430054,313.549652 
	C516.419189,325.701050 516.417786,337.852478 516.386230,350.003845 
	C516.367126,357.364563 516.344971,357.355408 509.001923,357.357513 
	C488.337921,357.363403 467.673920,357.379913 447.009918,357.385559 
	C444.063538,357.386383 441.168945,357.283997 441.186646,361.556702 
	C441.244629,375.554352 441.241425,389.552368 441.219421,403.550140 
	C441.214752,406.511139 442.597931,407.735626 445.514069,407.695557 
	C451.012268,407.619934 456.514984,407.579163 462.010651,407.722717 
	C465.495178,407.813782 466.761078,406.283722 466.675537,402.915039 
	C466.540222,397.585968 466.763245,392.247498 466.612549,386.919281 
	C466.519928,383.645020 467.912323,382.557312 471.064117,382.566956 
	C492.893524,382.633759 514.723389,382.631256 536.552734,382.552795 
	C539.853333,382.540924 540.992981,384.000397 540.908203,387.091766 
	C540.780396,391.751495 540.814880,396.415497 540.762390,401.077484 
	C540.695007,407.057770 541.255127,407.673889 547.234924,407.682831 
	C560.899963,407.703278 574.566284,407.785553 588.229309,407.618866 
	C592.122253,407.571381 593.619385,408.880066 593.412537,412.820129 
	C593.159546,417.639069 593.428589,422.483154 593.353943,427.314514 
	C593.294189,431.187378 594.759827,433.215668 598.949524,433.051147 
	C603.941345,432.855164 608.948608,432.886047 613.944214,433.012146 
	C617.288025,433.096527 618.871826,431.911896 618.690735,428.364563 
	C618.495605,424.541962 618.636169,420.700958 618.668579,416.868286 
	C618.753418,406.819916 617.604858,407.702789 627.741638,407.687164 
	C650.572205,407.651978 673.403442,407.602051 696.233154,407.749542 
	C700.321777,407.775909 701.982605,406.503052 701.732056,402.318115 
	C701.463623,397.834778 701.552795,393.318665 701.709167,388.824646 
	C701.843506,384.962250 700.041931,383.324463 696.342102,383.332062 
	C691.509460,383.342010 686.676758,383.300995 681.844055,383.288757 
	C673.720520,383.268188 673.714661,383.270477 673.709290,375.000366 
	C673.695557,354.002899 673.603760,333.004822 673.747253,312.008423 
	C673.776306,307.748901 672.457703,305.882965 668.035217,306.105927 
	C663.215271,306.348999 658.357910,306.379669 653.544373,306.072021 
	C648.760254,305.766174 647.207825,307.544830 647.255432,312.370117 
	C647.471008,334.198730 647.264221,356.031281 647.417236,377.860962 
	C647.445984,381.961609 646.137329,383.429413 641.994568,383.358337 
	C630.499451,383.161011 618.998596,383.299469 606.500000,383.307037 
M446.831482,460.019897 
	C442.090729,460.215668 440.481018,457.858154 440.547028,453.251648 
	C440.730865,440.424286 440.562744,427.592316 440.612213,414.762482 
	C440.629303,410.329346 439.164917,407.825958 434.151764,408.266815 
	C430.347961,408.601318 426.475677,408.581390 422.664429,408.302002 
	C417.708282,407.938721 416.148163,410.285065 416.331787,414.841248 
	C416.512817,419.332733 416.098206,423.857727 416.436768,428.330780 
	C416.788361,432.976379 414.996277,434.382507 410.458405,434.306824 
	C396.632538,434.076202 382.799896,434.287445 368.971069,434.175323 
	C365.591858,434.147949 364.094513,435.270172 364.227203,438.790710 
	C364.409058,443.615845 364.507843,448.468658 364.195770,453.280670 
	C363.906250,457.745361 365.666504,459.009644 369.980194,458.940399 
	C382.972748,458.731812 395.971436,458.911346 408.967743,458.931976 
	C416.350067,458.943665 416.351654,458.937042 416.366608,466.515106 
	C416.373505,470.014252 416.368591,473.513367 416.376770,477.012512 
	C416.394470,484.585388 416.543518,484.729065 424.342773,484.730713 
	C428.008545,484.731476 431.698914,484.993225 435.334015,484.658051 
	C440.131012,484.215790 441.467743,486.404694 441.273438,490.784088 
	C441.044739,495.939087 441.367493,501.117218 441.187653,506.276154 
	C441.065399,509.783508 442.520172,511.018555 445.914642,510.912933 
	C450.908051,510.757599 455.911774,510.966492 460.908752,510.881317 
	C464.353973,510.822601 466.192932,512.058716 466.174713,515.795166 
	C466.105743,529.957703 466.119080,544.121033 466.193298,558.283630 
	C466.212280,561.906189 464.655579,563.255493 461.051331,563.241821 
	C439.057251,563.158386 417.062317,563.157959 395.068420,563.271423 
	C391.218018,563.291260 390.159576,561.537598 390.297729,558.082153 
	C390.497162,553.093567 390.472504,548.096313 390.558746,543.102966 
	C390.627197,539.142273 389.280609,536.899231 384.732422,537.140259 
	C379.250122,537.430725 373.738739,537.217468 368.240814,537.150330 
	C365.596436,537.118042 364.262054,538.104736 364.268677,540.951172 
	C364.321350,563.612183 364.324738,586.273438 364.280945,608.934448 
	C364.275574,611.713013 365.457245,612.844543 368.171417,612.818481 
	C374.002533,612.762451 379.836670,612.720032 385.665588,612.850159 
	C389.068604,612.926147 390.555328,611.421814 390.547455,608.104736 
	C390.534790,602.773132 390.694305,597.439148 390.581451,592.110474 
	C390.512787,588.869019 391.905731,587.702393 395.055450,587.711487 
	C417.216461,587.775513 439.377838,587.782227 461.538849,587.720215 
	C464.958466,587.710632 466.344025,589.119995 466.271088,592.504578 
	C466.156250,597.833740 466.375458,603.170837 466.224884,608.498169 
	C466.132385,611.771729 467.496521,612.952637 470.670807,612.866577 
	C475.665741,612.731018 480.690491,612.542053 485.659668,612.928284 
	C490.811035,613.328674 492.229492,611.280457 492.169922,606.334595 
	C491.909302,584.699951 493.069824,563.060547 492.109406,541.425781 
	C491.925446,537.282410 493.659637,535.718262 497.698120,535.869324 
	C502.189758,536.037292 506.696686,535.764160 511.192047,535.877747 
	C514.252808,535.955078 515.862732,535.032043 515.743408,531.633972 
	C515.568115,526.641357 515.601746,521.635742 515.728455,516.640259 
	C515.810608,513.398376 514.408630,512.164917 511.239288,512.246277 
	C506.410522,512.370239 501.571045,512.130493 496.745331,512.302917 
	C493.267151,512.427185 491.941772,510.932373 492.000000,507.582550 
	C492.101318,501.752502 491.962250,495.917999 492.083832,490.088684 
	C492.153687,486.739319 490.905090,485.229492 487.393524,485.343323 
	C482.234344,485.510529 477.052643,485.123016 471.902802,485.394562 
	C467.655487,485.618530 466.353302,483.899170 466.586060,479.863373 
	C466.854218,475.213501 466.461426,470.527039 466.691071,465.873016 
	C466.908051,461.475464 464.983276,459.892609 460.764160,460.065826 
	C456.440308,460.243439 452.101837,460.065430 446.831482,460.019897 
M219.557510,721.358093 
	C220.250107,726.184570 219.740829,731.003723 219.439056,735.820557 
	C219.217773,739.352600 220.643723,741.119568 224.348770,741.008667 
	C228.843246,740.874084 233.347260,740.821289 237.840485,740.955994 
	C241.557251,741.067383 242.851349,739.414795 242.702408,735.821838 
	C242.509384,731.165344 242.659058,726.494385 242.669449,721.829651 
	C242.685425,714.656067 242.688400,714.648071 249.670807,714.647888 
	C268.829559,714.647339 287.988281,714.657043 307.147034,714.656494 
	C314.662445,714.656250 314.662201,714.648682 314.673981,707.385193 
	C314.679932,703.720032 314.687988,700.054932 314.693207,696.389771 
	C314.703735,688.985779 314.703156,688.935303 322.165466,688.927979 
	C343.323029,688.907288 364.481232,688.856873 385.637756,689.009644 
	C389.330231,689.036255 390.795746,687.878113 390.556061,684.176025 
	C390.255157,679.528564 390.099121,674.862854 390.122253,670.206116 
	C390.139984,666.645081 388.814789,665.083984 385.084503,665.243225 
	C379.929810,665.463135 374.743744,665.038879 369.597656,665.341614 
	C364.964447,665.614258 363.524628,663.801270 363.596832,659.279236 
	C363.812286,645.788330 363.634003,632.291565 363.682098,618.797302 
	C363.691925,616.047302 363.398499,613.525452 359.968842,613.523987 
	C346.648865,613.518311 333.328522,613.628540 320.008942,613.758667 
	C317.503845,613.783142 315.949371,615.006897 315.962738,617.761108 
	C315.990234,623.424377 315.988342,629.088074 315.962219,634.751404 
	C315.948212,637.794556 317.557098,638.764832 320.405792,638.696289 
	C325.067596,638.584045 329.738983,638.809143 334.397491,638.643555 
	C337.628571,638.528687 338.942719,639.880737 338.911835,643.019775 
	C338.857697,648.516541 338.789124,654.018860 338.975677,659.510376 
	C339.117249,663.676819 337.696320,665.472778 333.220825,665.377502 
	C321.730865,665.132874 310.224701,665.543823 298.740204,665.194153 
	C293.545776,665.035889 291.908997,666.902466 292.296478,671.833130 
	C292.621765,675.972229 292.079437,680.181030 292.428223,684.316284 
	C292.822601,688.992493 290.974335,690.292236 286.460632,690.249329 
	C266.637604,690.061096 246.811615,690.169495 226.986755,690.195984 
	C219.989288,690.205322 220.013565,690.238892 219.921524,697.013184 
	C219.815186,704.837646 219.660538,712.661377 219.557510,721.358093 
M593.374939,699.514038 
	C593.371582,702.345459 593.627136,705.206360 593.308899,708.001953 
	C592.716187,713.209778 595.219849,714.797241 599.963745,714.650635 
	C605.121338,714.491150 610.295837,714.820618 615.449341,714.607483 
	C619.189636,714.452881 620.461975,715.961609 620.347900,719.572876 
	C620.163940,725.396423 620.204651,731.231567 620.323975,737.058289 
	C620.389099,740.238525 619.161316,741.540649 615.916809,741.456909 
	C610.595459,741.319519 605.255310,741.709534 599.943848,741.450317 
	C595.399597,741.228577 593.456970,743.218384 593.452820,747.522217 
	C593.448242,752.350708 593.499084,757.179260 593.519226,762.007751 
	C593.534302,765.607239 595.311401,766.779297 598.883789,766.737732 
	C613.038879,766.572754 627.197754,766.582764 641.353333,766.724487 
	C645.243408,766.763367 646.708374,765.275024 646.694214,761.443115 
	C646.613770,739.625061 646.587097,717.806152 646.715820,695.988586 
	C646.741943,691.568848 644.842773,690.077515 640.696045,690.172241 
	C634.870605,690.305176 629.036194,690.051086 623.210754,690.184326 
	C619.754456,690.263367 618.462219,688.873047 618.602722,685.448914 
	C618.793823,680.793335 618.524902,676.119690 618.684692,671.461731 
	C618.831848,667.170959 617.477295,664.919861 612.681335,665.216980 
	C607.538147,665.535645 602.357605,665.196899 597.197266,665.314941 
	C594.033203,665.387329 592.666016,664.162720 592.758179,660.911133 
	C592.909180,655.585815 592.709229,650.250916 592.835815,644.924316 
	C592.917664,641.478394 591.419189,640.154114 588.036926,640.243286 
	C582.877625,640.379395 577.704712,640.428528 572.550964,640.205322 
	C568.679993,640.037781 567.201111,641.451843 567.290344,645.399963 
	C567.493408,654.389160 567.231201,663.388184 567.377625,672.379639 
	C567.661865,689.836792 564.033508,688.613831 583.507996,688.693542 
	C594.428467,688.738220 593.343079,687.249573 593.374939,699.514038 
M213.500595,612.824768 
	C221.663177,612.805237 229.826599,612.710144 237.987915,612.802307 
	C241.383301,612.840576 242.838577,611.521912 242.690018,608.062683 
	C242.518661,604.072205 242.668869,600.068298 242.664566,596.070190 
	C242.656433,588.493408 242.567612,588.396729 234.728058,588.386658 
	C223.233566,588.371948 211.739029,588.396240 200.244568,588.374207 
	C193.696640,588.361694 193.695358,588.335083 193.660767,581.688416 
	C193.652954,580.189209 193.657120,578.689819 193.657211,577.190552 
	C193.658371,557.366638 193.568863,537.542053 193.734833,517.719482 
	C193.769669,513.557007 192.357880,511.998566 188.235260,512.258667 
	C184.253036,512.510010 180.220612,512.575989 176.250092,512.244934 
	C171.482986,511.847534 169.443481,513.889099 169.472870,518.466248 
	C169.481430,519.798340 169.417053,521.130859 169.417023,522.463135 
	C169.416092,565.441772 169.415894,608.420349 169.429062,651.398987 
	C169.429825,653.895996 169.567276,656.392700 169.599701,658.890076 
	C169.652725,662.971008 171.431534,664.971069 175.769257,664.697815 
	C179.751266,664.447021 183.781754,664.404480 187.754913,664.721252 
	C192.360641,665.088440 193.843445,663.381104 193.753403,658.748901 
	C193.487976,645.093872 193.750504,631.429443 193.599548,617.770935 
	C193.559036,614.103638 194.842072,612.634399 198.509323,612.772278 
	C203.167175,612.947449 207.836487,612.817810 213.500595,612.824768 
M592.783508,602.426270 
	C592.779724,590.939209 592.710510,579.451599 592.812744,567.965515 
	C592.842712,564.601135 591.664001,563.106384 588.161255,563.225891 
	C583.006409,563.401733 577.836121,563.407959 572.681946,563.222046 
	C568.856079,563.084106 567.182007,564.538879 567.322632,568.451782 
	C567.495789,573.273254 567.151001,578.116821 567.408081,582.930725 
	C567.622864,586.953735 566.331421,588.697998 562.083496,588.466614 
	C556.938171,588.186279 551.763916,588.486511 546.605103,588.385925 
	C542.671326,588.309265 540.761963,589.874207 540.906738,594.004089 
	C541.069885,598.658691 540.789185,603.328003 540.917725,607.984924 
	C541.026672,611.929138 539.648071,613.577515 535.397583,613.495483 
	C523.103882,613.257996 510.796082,613.658020 498.506744,613.327515 
	C493.402710,613.190247 492.083038,615.297485 492.391479,619.803772 
	C492.697998,624.281616 492.881439,628.778687 492.856354,633.265930 
	C492.811737,641.246460 492.539948,649.225342 492.417877,657.205750 
	C492.309326,664.299438 492.686737,664.666077 499.528595,664.673218 
	C503.357635,664.677185 507.190460,664.554932 511.014526,664.689880 
	C514.397705,664.809082 515.845093,663.486816 515.734619,659.999329 
	C515.565979,654.677795 515.911987,649.337158 515.666626,644.021790 
	C515.472656,639.821594 517.170227,638.552490 521.225891,638.609253 
	C534.208679,638.790833 547.195740,638.672424 560.181152,638.661377 
	C566.929932,638.655640 566.932190,638.647705 566.979431,631.662720 
	C567.006409,627.667297 566.999023,623.671509 567.051514,619.676453 
	C567.138062,613.081909 567.364258,612.861511 573.745422,612.826355 
	C576.908386,612.808960 580.071472,612.810608 583.234497,612.807556 
	C592.775024,612.798340 592.775024,612.799133 592.783508,602.426270 
M338.931244,526.578369 
	C338.919006,527.577148 339.000946,528.587646 338.878571,529.572693 
	C338.289825,534.311829 340.255737,536.238098 345.079895,535.932922 
	C349.888763,535.628601 354.733246,535.748718 359.557220,535.872742 
	C362.542938,535.949524 363.700043,534.790710 363.689941,531.770874 
	C363.615509,509.464600 363.597504,487.157776 363.688843,464.851624 
	C363.703186,461.350677 362.248077,460.077393 358.932678,460.131866 
	C353.774109,460.216644 348.611633,460.211243 343.453400,460.110138 
	C340.271942,460.047821 338.908234,461.481293 338.951080,464.605865 
	C339.015015,469.265686 339.002319,473.927490 338.952209,478.587708 
	C338.882263,485.091827 338.647675,485.333496 332.246704,485.359436 
	C320.760834,485.405975 309.274780,485.431915 297.788879,485.414825 
	C294.567383,485.410065 292.297913,486.096863 292.324432,490.073883 
	C292.417694,504.056335 292.387817,518.039917 292.330750,532.022766 
	C292.319336,534.817078 293.559387,535.908142 296.259064,535.856750 
	C300.918671,535.767944 305.582184,535.715637 310.240845,535.808838 
	C313.384705,535.871643 314.792389,534.637024 314.712921,531.387756 
	C314.586792,526.230896 314.845215,521.063721 314.680878,515.909180 
	C314.575775,512.612427 315.631989,510.881165 319.147278,510.933929 
	C324.306000,511.011414 329.467468,510.973358 334.626923,510.912323 
	C337.581726,510.877350 338.825562,512.264709 338.784576,515.180725 
	C338.735535,518.668701 338.873230,522.159302 338.931244,526.578369 
M516.377136,497.547241 
	C516.381653,500.543304 516.460693,503.541687 516.369141,506.534821 
	C516.281433,509.402557 517.373352,510.858704 520.416260,510.857544 
	C543.219177,510.848938 566.022095,510.884583 588.824890,510.947784 
	C591.523560,510.955261 592.788879,509.837372 592.785522,507.090363 
	C592.758179,484.453583 592.749390,461.816711 592.790527,439.179962 
	C592.795898,436.215546 591.468628,434.939880 588.580505,434.951965 
	C583.587463,434.972931 578.585815,435.092499 573.603271,434.851227 
	C568.800293,434.618622 567.199890,436.669312 567.277710,441.372223 
	C567.492371,454.351746 567.227295,467.338959 567.415955,480.319305 
	C567.473511,484.280121 566.103882,485.503998 562.209290,485.434692 
	C550.728027,485.230377 539.240417,485.316742 527.755798,485.382019 
	C516.218567,485.447601 516.311890,483.400879 516.377136,497.547241 
M242.668640,440.499573 
	C242.661636,431.502899 242.533997,422.503906 242.705719,413.510620 
	C242.776566,409.800598 241.208710,408.344696 237.705444,408.376343 
	C233.540848,408.413971 229.355087,408.628265 225.216187,408.296112 
	C220.897766,407.949585 219.559586,410.028473 219.580597,413.839081 
	C219.701660,435.793488 219.839828,457.747894 219.883209,479.702484 
	C219.890106,483.198029 221.018631,484.785645 224.814865,484.761078 
	C245.639618,484.626495 266.466064,484.612091 287.290771,484.744446 
	C291.273529,484.769745 292.690491,483.104279 292.637238,479.418213 
	C292.574707,475.087524 292.409088,470.740479 292.694458,466.427429 
	C293.014832,461.586121 290.983887,460.032806 286.279877,460.106750 
	C273.455048,460.308350 260.622864,460.025757 247.797058,460.195679 
	C243.860809,460.247803 242.413147,458.895721 242.621765,454.991302 
	C242.861435,450.505951 242.671951,445.997650 242.668640,440.499573 
M753.737244,323.311707 
	C753.728821,319.319519 753.566101,315.320007 753.755493,311.337219 
	C753.943604,307.381012 752.171326,306.024261 748.392822,306.142029 
	C743.075623,306.307770 737.744019,306.022827 732.427734,306.202271 
	C728.715637,306.327606 727.414307,304.816711 727.567200,301.183655 
	C727.776672,296.202606 727.598816,291.205566 727.600098,286.215363 
	C727.601013,282.792755 726.153381,281.042175 722.483459,281.067566 
	C708.511719,281.164368 694.537964,281.217560 680.567200,281.073303 
	C676.193481,281.028107 674.535095,283.141357 674.504761,287.081573 
	C674.470276,291.565765 674.498535,296.052826 674.627258,300.534973 
	C674.716553,303.644165 676.518372,304.801361 679.562073,304.745270 
	C685.880981,304.628815 692.205994,304.811707 698.523376,304.660004 
	C701.765625,304.582153 703.082214,305.971802 703.019287,309.078217 
	C702.921570,313.899628 702.939880,318.723877 702.805603,323.544006 
	C702.635254,329.659485 703.448853,330.625244 709.407776,330.639740 
	C722.049866,330.670502 734.698303,330.424988 747.331177,330.767822 
	C752.438904,330.906403 754.458008,329.236847 753.737244,323.311707 
M440.565491,694.974182 
	C440.755310,691.649109 439.297974,690.137939 435.858459,690.156372 
	C422.383087,690.228638 408.906616,690.216064 395.431366,690.123291 
	C392.237152,690.101318 390.943787,691.406433 390.954651,694.566162 
	C391.032562,717.190918 391.068451,739.815796 391.046265,762.440674 
	C391.043060,765.714172 392.517303,766.818604 395.637054,766.714233 
	C400.124115,766.564087 404.619995,766.688782 409.112061,766.672852 
	C415.774872,766.649170 415.814728,766.640625 415.833313,760.145325 
	C415.871429,746.835632 416.000916,733.523743 415.794434,720.217346 
	C415.725891,715.799866 417.303284,714.293823 421.616394,714.582947 
	C426.088379,714.882690 430.606842,714.457642 435.084900,714.708069 
	C438.803925,714.916077 440.156342,713.402405 440.142822,709.817688 
	C440.125305,705.167297 440.421417,700.515686 440.565491,694.974182 
M593.365906,537.499817 
	C593.367371,543.490967 593.507629,549.486328 593.324951,555.471863 
	C593.186218,560.018250 594.703064,562.330200 599.647278,562.011292 
	C604.121826,561.722717 608.636414,561.803650 613.121155,562.000977 
	C617.109009,562.176514 618.958008,560.806213 618.714172,556.556458 
	C618.447632,551.912109 618.650146,547.240417 618.662781,542.580627 
	C618.680969,535.857788 618.740051,535.824341 625.254578,535.840149 
	C630.912659,535.853882 636.571899,535.741150 642.228577,535.822571 
	C645.369812,535.867737 646.783875,534.630859 646.690002,531.385132 
	C646.550476,526.563171 646.534424,521.729248 646.709045,516.909241 
	C646.836426,513.393799 645.285034,512.243408 641.937439,512.263245 
	C627.293030,512.350037 612.647278,512.361450 598.003174,512.246399 
	C594.487427,512.218811 593.299133,513.691956 593.358582,517.029358 
	C593.474243,523.517517 593.376404,530.009460 593.365906,537.499817 
M488.098572,714.672363 
	C491.321014,714.924438 492.017609,713.000061 492.012726,710.292725 
	C491.988312,696.801880 491.981079,683.310974 492.038727,669.820374 
	C492.051788,666.764526 490.978943,665.228577 487.675049,665.249512 
	C473.684631,665.338318 459.693207,665.330200 445.702515,665.268433 
	C442.539490,665.254456 441.156555,666.514648 441.236420,669.730652 
	C441.360413,674.724243 441.384430,679.727051 441.224518,684.718689 
	C441.113220,688.193604 442.748322,689.566467 445.995422,689.567200 
	C451.158569,689.568420 456.335022,689.822754 461.480438,689.527344 
	C465.327271,689.306458 466.468109,690.787903 466.303558,694.420959 
	C466.077667,699.407593 466.457550,704.424316 466.172394,709.404846 
	C465.929596,713.645447 467.647705,714.947754 471.696869,714.736389 
	C476.845947,714.467590 482.020111,714.679504 488.098572,714.672363 
M276.576965,382.652710 
	C287.738586,382.654999 298.900940,382.584930 310.061340,382.703156 
	C313.462158,382.739166 314.865479,381.472504 314.843231,378.028137 
	C314.752747,364.035492 314.743042,350.041443 314.846893,336.049011 
	C314.872772,332.562927 313.419952,331.267334 310.061035,331.374786 
	C305.900574,331.507843 301.722687,331.586975 297.570740,331.357147 
	C293.533112,331.133606 292.287231,333.034088 292.366241,336.733978 
	C292.483551,342.228577 292.294647,347.729401 292.390900,353.224884 
	C292.442627,356.179016 291.293701,357.442749 288.272552,357.387817 
	C282.611023,357.284882 276.945465,357.419403 271.281586,357.423370 
	C267.797333,357.425781 266.089539,358.909546 266.296661,362.605591 
	C266.501404,366.259369 266.345245,369.933075 266.354645,373.598053 
	C266.380676,383.745239 265.724884,382.581146 276.576965,382.652710 
M655.663879,485.361115 
	C647.366638,485.446472 647.364502,485.446472 647.357727,493.542542 
	C647.354126,497.870026 647.438904,502.199432 647.332397,506.524261 
	C647.263000,509.340881 648.128235,510.912079 651.261353,510.900421 
	C666.739685,510.842834 682.218445,510.843811 697.696777,510.901093 
	C700.747192,510.912384 701.787598,509.523834 701.710144,506.619324 
	C701.585938,501.962311 701.694092,497.299438 701.674072,492.639191 
	C701.646179,486.165497 701.018250,485.437592 694.567871,485.398041 
	C681.918945,485.320435 669.269226,485.363678 655.663879,485.361115 
M754.539368,368.412567 
	C754.566406,370.908508 754.692078,373.408173 754.598633,375.899597 
	C754.432434,380.333069 756.401428,382.263763 760.893616,382.084686 
	C765.881042,381.885895 770.885437,381.946625 775.877258,382.083771 
	C779.485168,382.182892 780.938782,380.690735 780.910156,377.051697 
	C780.805481,363.730988 780.762573,350.407349 780.943604,337.088196 
	C781.001343,332.842560 778.983643,331.451355 775.230286,331.438751 
	C770.567810,331.423065 765.895996,331.584961 761.245667,331.339111 
	C756.882690,331.108521 754.792480,332.565826 754.841431,337.244293 
	C754.947205,347.375061 754.724121,357.509216 754.539368,368.412567 
M727.193542,435.765228 
	C725.449158,442.480042 726.613037,449.306946 726.454163,456.080750 
	C726.395813,458.568176 728.397461,458.925079 730.316956,458.937714 
	C736.802673,458.980530 743.289001,458.938202 749.774963,458.962006 
	C752.409973,458.971680 753.773010,457.878571 753.730530,455.085754 
	C753.644592,449.432159 753.682434,443.776703 753.663452,438.122009 
	C753.657227,436.266052 752.987854,434.550903 750.990540,434.544952 
	C743.232056,434.521820 735.434875,433.319763 727.193542,435.765228 
M781.411499,400.288513 
	C781.367554,407.593384 781.404785,407.640106 788.409973,407.650848 
	C793.385315,407.658478 798.361694,407.576233 803.335571,407.659576 
	C806.710449,407.716125 808.192444,406.019257 808.275696,402.836609 
	C808.396973,398.200317 808.462402,393.562592 808.583252,388.926300 
	C808.680054,385.211975 806.853027,383.370361 803.188965,383.341614 
	C797.550537,383.297394 791.906921,383.431702 786.274963,383.227966 
	C782.789795,383.101898 781.453552,384.636322 781.477051,387.916016 
	C781.504456,391.729706 781.433289,395.544128 781.411499,400.288513 
M194.348038,489.946960 
	C194.359192,495.435974 194.463821,500.927002 194.345795,506.413239 
	C194.277084,509.606323 195.585953,510.950806 198.772522,510.889374 
	C204.259369,510.783569 209.750092,510.806274 215.238159,510.867767 
	C217.915970,510.897766 219.397736,509.613403 219.443314,507.049530 
	C219.546600,501.238708 219.546555,495.422607 219.415695,489.612579 
	C219.355133,486.923737 217.936615,485.333771 214.988052,485.367340 
	C209.333557,485.431824 203.677841,485.405640 198.022705,485.393585 
	C195.545059,485.388306 194.345001,486.600830 194.348038,489.946960 
M640.253845,304.732056 
	C645.272278,305.504669 647.212219,303.458801 646.733704,298.350983 
	C646.347717,294.230347 646.587341,290.042847 646.682251,285.888092 
	C646.751038,282.877014 645.699219,281.123566 642.426147,281.147339 
	C636.442139,281.190796 630.457581,281.176361 624.473328,281.158173 
	C621.587524,281.149414 620.239441,282.472565 620.291321,285.425171 
	C620.379028,290.411926 620.413940,295.403809 620.284546,300.388702 
	C620.198792,303.693970 621.780701,304.788177 624.847229,304.732178 
	C629.667480,304.644165 634.490784,304.721649 640.253845,304.732056 
M352.487244,432.921234 
	C365.350586,432.682556 363.471588,434.542267 363.665131,421.817261 
	C363.667633,421.651031 363.665436,421.484711 363.665375,421.318451 
	C363.661499,408.305328 363.659943,408.197754 350.839722,408.381805 
	C337.739502,408.569855 338.974518,405.857178 338.998505,420.317108 
	C339.022888,434.993469 337.871948,432.650848 352.487244,432.921234 
M417.897766,332.383820 
	C415.256958,338.979340 416.573883,345.840851 416.673309,352.594543 
	C416.714661,355.401550 418.973724,356.477448 421.573425,356.525513 
	C426.066681,356.608551 430.566345,356.483215 435.054352,356.666351 
	C438.802216,356.819244 440.063110,354.959351 440.069214,351.525421 
	C440.077484,346.867035 440.049622,342.194122 440.403107,337.555298 
	C440.694092,333.736694 439.088898,331.775238 435.467285,331.614044 
	C429.834869,331.363373 424.182159,330.896088 417.897766,332.383820 
M703.481506,431.231384 
	C704.140320,431.703308 704.788696,432.568176 705.459534,432.585938 
	C711.608032,432.748749 717.760925,432.830750 723.911621,432.790710 
	C726.403015,432.774506 726.664795,430.865356 726.659363,428.889832 
	C726.645325,423.730103 726.587646,418.569000 726.685486,413.411072 
	C726.749329,410.044556 725.110901,408.450073 721.901062,408.402435 
	C716.908813,408.328308 711.913025,408.444916 706.922424,408.326294 
	C704.169312,408.260834 702.847900,409.497803 702.869751,412.138214 
	C702.920349,418.261444 703.054504,424.383972 703.481506,431.231384 
M211.360947,665.297913 
	C207.028961,665.307007 202.696518,665.358154 198.365173,665.309692 
	C195.675186,665.279663 194.346497,666.472839 194.357513,669.192444 
	C194.378464,674.357300 194.423340,679.523438 194.333130,684.686829 
	C194.280807,687.681580 195.667374,688.900452 198.564041,688.870850 
	C203.895111,688.816406 209.228897,688.774780 214.558121,688.888550 
	C217.726334,688.956177 219.154999,687.629639 219.099075,684.457214 
	C219.025681,680.293274 219.118668,676.126709 219.084122,671.961731 
	C219.030151,665.454651 218.955704,665.401245 211.360947,665.297913 
M493.327972,716.052246 
	C490.733246,723.537476 493.256836,731.046814 493.324280,738.540466 
	C493.342651,740.582520 495.543213,740.662354 497.246643,740.665344 
	C501.888123,740.673401 506.534943,740.531128 511.169342,740.712341 
	C514.705566,740.850647 515.837341,739.278137 515.731567,735.947083 
	C515.573853,730.979065 515.524536,725.994751 515.749023,721.031799 
	C515.913452,717.396729 514.521667,715.899963 510.904266,715.928467 
	C505.278320,715.972778 499.650482,715.779358 493.327972,716.052246 
M262.936188,766.666321 
	C265.041443,766.682373 265.748230,765.420349 266.027985,763.536682 
	C266.911346,757.589050 266.222321,751.638306 266.144775,745.691589 
	C266.110046,743.026489 264.451477,741.949158 261.882660,741.951477 
	C257.066681,741.955933 252.243118,742.041931 247.437408,741.801025 
	C244.401474,741.648865 243.229507,742.686768 243.312607,745.747803 
	C243.461258,751.224365 243.494843,756.712769 243.304230,762.186829 
	C243.179321,765.774109 244.792877,766.828491 248.098389,766.717590 
	C252.743240,766.561768 257.397461,766.684509 262.936188,766.666321 
M702.645386,472.346710 
	C701.901550,484.696106 701.901611,484.719299 712.775146,484.689606 
	C727.209412,484.650208 725.703308,486.055664 725.646240,471.941254 
	C725.592407,458.621948 727.460144,460.332581 714.075745,460.154877 
	C702.813782,460.005341 702.813354,460.035889 702.645386,472.346710 
M250.709030,383.330261 
	C247.661896,383.645142 243.473175,382.049377 243.393387,387.474854 
	C243.312775,392.956573 243.400085,398.440521 243.360138,403.923126 
	C243.339478,406.760712 244.884460,407.686096 247.467438,407.647583 
	C250.623413,407.600555 253.780914,407.661957 256.937744,407.665100 
	C266.142487,407.674316 266.142487,407.672089 266.079956,398.310760 
	C266.078827,398.144623 266.075928,397.978455 266.074341,397.812317 
	C265.937531,383.335876 265.937561,383.335876 250.709030,383.330261 
M337.901184,312.670959 
	C338.686157,307.700897 336.732269,305.603912 331.585327,306.103973 
	C327.957275,306.456482 324.259033,306.354340 320.609924,306.144836 
	C317.079834,305.942200 315.706146,307.734009 315.708435,310.858093 
	C315.712372,316.177826 315.919556,321.497101 315.999023,326.817169 
	C316.039032,329.494995 317.265594,330.725403 320.005371,330.668213 
	C324.497314,330.574341 328.995148,330.545715 333.485596,330.668549 
	C336.767059,330.758301 337.926575,329.182068 337.871765,326.111664 
	C337.797516,321.952332 337.872864,317.790314 337.901184,312.670959 
M319.193848,383.274933 
	C316.939209,383.266907 315.758667,384.442749 315.771484,386.644287 
	C315.805359,392.464752 315.913055,398.284912 316.006622,404.104919 
	C316.045746,406.541962 317.229401,407.711243 319.748230,407.673462 
	C324.408813,407.603546 329.072754,407.591919 333.732483,407.689697 
	C336.747528,407.752930 337.936493,406.300354 337.912720,403.441925 
	C337.869904,398.281708 337.855713,393.120758 337.890411,387.960510 
	C337.912659,384.650360 336.461426,383.099213 333.041565,383.207367 
	C328.717255,383.344086 324.385284,383.238251 319.193848,383.274933 
z"/>
</svg>